<mxfile host="app.diagrams.net" modified="2024-04-02T19:25:20.656Z" agent="Mozilla/5.0 (Windows NT 10.0; Win64; x64) AppleWebKit/537.36 (KHTML, like Gecko) Chrome/122.0.0.0 Safari/537.36" version="23.1.7" etag="Zrp0lgL2RVAO_d4xhWDd" type="github">
  <diagram name="PÃ¡gina-1" id="mikYTKKq7pikksGELtm-">
    <mxGraphModel>
      <root>
        <mxCell id="0" />
        <mxCell id="1" parent="0" />
      </root>
    </mxGraphModel>
  </diagram>
</mxfile>
